<svg xmlns="http://www.w3.org/2000/svg" viewBox="0 0 24 24">
  <path
    d="M23.52 12.27c0-.85-.08-1.67-.22-2.45H12v4.64h6.47c-.28 1.5-1.13 2.77-2.4 3.62v3h3.89c2.27-2.09 3.57-5.17 3.57-8.81Z"
    fill="#4285F4"
  />
  <path
    d="M12 24c3.24 0 5.96-1.07 7.95-2.92l-3.89-3c-1.08.73-2.46 1.15-4.06 1.15-3.12 0-5.77-2.11-6.71-4.94H1.28v3.1C3.26 21.3 7.31 24 12 24Z"
    fill="#34A853"
  />
  <path
    d="M5.29 14.29a7.2 7.2 0 0 1 0-4.58v-3.1H1.28a12 12 0 0 0 0 10.78l4.01-3.1Z"
    fill="#FBBC05"
  />
  <path
    d="M12 4.77c1.76 0 3.34.6 4.58 1.79l3.44-3.44C17.95 1.19 15.24 0 12 0 7.31 0 3.26 2.7 1.28 6.61l4.01 3.1C6.23 6.88 8.88 4.77 12 4.77Z"
    fill="#EA4335"
  />
</svg>
