<svg width="512" height="512" viewBox="0 0 512 512" role="img" xmlns="http://www.w3.org/2000/svg">
  <rect width="512" height="512" rx="112" fill="#0D9488"/>
  <rect x="96" y="96" width="136" height="136" rx="20" fill="none" stroke="#fff" stroke-width="28"/>
  <rect x="140" y="140" width="48" height="48" rx="6" fill="#fff"/>
  <rect x="280" y="96" width="136" height="136" rx="20" fill="none" stroke="#fff" stroke-width="28"/>
  <rect x="324" y="140" width="48" height="48" rx="6" fill="#fff"/>
  <rect x="96" y="280" width="136" height="136" rx="20" fill="none" stroke="#fff" stroke-width="28"/>
  <rect x="140" y="324" width="48" height="48" rx="6" fill="#fff"/>
  <rect x="280" y="280" width="28" height="28" rx="4" fill="#fff"/>
  <rect x="324" y="280" width="28" height="28" rx="4" fill="#fff"/>
  <rect x="368" y="280" width="48" height="28" rx="4" fill="#fff"/>
  <rect x="280" y="324" width="48" height="28" rx="4" fill="#fff"/>
  <rect x="340" y="324" width="28" height="28" rx="4" fill="#fff"/>
  <rect x="368" y="352" width="48" height="64" rx="8" fill="#fff"/>
  <rect x="280" y="368" width="48" height="48" rx="8" fill="#fff"/>
</svg>